<?xml version="1.0" encoding="UTF-8"?>
<svg id="Layer_1" data-name="Layer 1" xmlns="http://www.w3.org/2000/svg" version="1.1" viewBox="0 0 500 500">
  <defs>
    <style>
      .cls-1 {
        fill: #4b5563;
      }

      .cls-1, .cls-2, .cls-3 {
        stroke-width: 0px;
      }

      .cls-2 {
        fill: #000;
      }

      .cls-3 {
        fill: #16a34a;
      }
    </style>
  </defs>
  <path class="cls-2" d="M250.22,429.66c-3.26,7.06-5.36,14.2-7.45,21.35-.65,2.22-1.52,4.33-3.19,6.04-5.51,5.62-13.25,4.24-16.51-2.87-3.12-6.79-4.32-14.22-7.25-21.09-13.19-30.92-33.77-55.52-62.16-73.59-13.11-8.35-27.14-12.79-42.89-12.63-23.44.23-45.48-5.74-66.1-16.97-6.06-3.3-9.73-7.93-10.22-14.98-.35-5.11,1.61-8.67,6.33-10.63,7.88-3.27,15.61-6.81,22.65-11.73,19.48-13.61,31.34-32.54,38.35-54.85.81-2.59,1.07-5.27,1.06-8.01-.04-12.59-.25-25.19.07-37.77.8-32.21,11.97-60.41,33.23-84.66,14.03-15.99,30.83-28.01,50.81-35.27,26.14-9.49,52.71-11.31,79.71-3.63,26.63,7.57,47.88,22.81,64.54,44.7,1.53,2,3.02,4.32,4.84,7.89,1.17,2.44-7.72,11.46-14.62,14.09-1.91.95-4.84,2.16-7.53-1.35-4.54-5.92-9.3-11.64-14.83-16.65-27.41-24.85-59.02-32.99-94.76-22.98-22.56,6.32-41.48,18.54-54.97,38.02-11.71,16.92-18.08,35.65-18.84,56.48-.61,16.63.15,33.28-1.13,49.91-.53,6.94-3.91,12.63-6.43,18.67-3.75,8.97-8.19,17.64-13.27,26-5.62,9.25-13.16,16.77-20.62,24.42-1.11,1.14-2.35,2.15-3.54,3.24,2.13,2.96,5.03,3.34,7.73,4.03,7.67,1.95,15.55,2.37,23.37,2.32,17.32-.11,32.66,5.47,46.67,15.26,4.88,3.41,10.15,6.23,14.78,10.01,3.86,3.15,6.52,6.26,5.02,12.04-1.6,6.15,3.49,13.48,9.94,13.6,1.08.02,5.05-.28,6.01-.64,5.91-2.23,9.31,3.08,12.66,6.95,4.17,5.2,10.29,14.87,15.44,24.88,1.36,2.64,2.57,5.36,4.06,8.49,4.22-8.43,8.59-16.27,13.67-23.71,11.12-16.3,25.36-29.52,41.01-41.29,9.96-7.49,20.42-14.09,31.86-19.3,11.31-5.15,23.2-5.99,35.2-6.81,7.27-.5,14.61-.39,21.66-2.64,1.55-.49,3.1-.96,4.36-1.99.32-1.1-.5-1.54-1.13-1.96-14.55-9.68-23.27-24.28-32.49-38.45-.87-1.34-1.39-2.93-1.92-4.46-.68-1.98-.06-3.36,2.04-4.1,6.24-2.22,12.66-3.96,18.41-7.42,2.21-1.33,3.14.45,4.1,1.95,7.52,11.7,16.59,22.02,27.31,30.9,6.1,5.06,12.72,9.46,20,12.28,14.48,5.61,11.15,20.75,2.03,26.88-8.61,5.79-18.02,9.81-27.62,13.56-12.87,5.03-26.26,6.7-39.85,5.63-13.16-1.04-24.3,3.44-35.23,9.95-25.26,15.05-44.95,35.38-59.03,61.15-2,3.67-3.51,7.61-5.36,11.71Z"/>
  <path class="cls-3" d="M440.65,169.25c-4.4,7.97-9.52,15.14-14.27,22.53-.78,1.21-1.82,2.49-3.25,1.58-4.91-3.16-10.82-4.34-15.49-7.92-.75-.57-1.36-1.35-2.14-1.86-1.55-1-1.6-3.84-3.96-3.64-2.8.24-5.1,1.84-6.99,3.83-3.76,3.96-3.83,9.91.18,12.96,3.2,2.44,6.91,4.21,10.41,6.26,4.61,2.7,4.95,3.59,1.45,7.64-6.53,7.55-14.76,13.1-23.08,18.4-12.57,8.02-25.61,15.25-39.8,19.99-8.19,2.73-16.66,4.63-25.06,6.68-2.37.58-5.33,1.43-6.75-1.79-1.57-3.54-4.79-6.94-1.41-11.17,6.43-8.07,14.03-15.03,21.31-22.28,26.18-26.05,52.51-51.95,78.6-78.09,5.78-5.79,10.84-12.29,15.96-18.74-9.08,5.88-17.66,12.32-26,19.12-29.26,23.89-57.15,49.3-84.07,75.78-5.01,4.93-10.38,9.51-15.29,14.54-3.35,3.43-6.16,1.23-9.1-.22-2.82-1.39-4.48-3.48-3.22-6.88,4.5-12.16,8.12-24.65,13.93-36.32,8.95-17.98,19.22-35.12,31.92-50.73.68-.84,1.28-1.76,2.04-2.52,2.66-2.7,4.34-2.48,5.53,1.12,1.58,4.77,3.85,9.23,5.73,13.86.67,1.64,1.56,3.42,3.78,2.92,2.48-.56,2.53-2.72,2.13-4.59-1.45-6.63-1.38-13.45-2.67-20.07-.53-2.72.05-4.37,2.14-5.89,14.29-10.31,29.18-19.58,45.29-26.85,19.92-8.99,40.69-15.4,61.78-20.87,1.17-.3,2.38-.54,3.58-.67,9.31-.98,12.57,2.74,10.61,11.87-6.29,29.28-18.3,56.21-33.8,82.01Z"/>
  <path class="cls-1" d="M271.11,274.46c3.95,3.91,7.66,7.66,11.47,11.3,1.54,1.47,1.66,2.65.55,4.55-6.15,10.55-10.44,21.93-14.68,33.33-.96,2.57-1.12,5.27-1.35,7.97-.28,3.32-1.78,4.72-5.45,4.93-20.63,1.19-39.54,7.1-55.02,21.53-1.64,1.53-3.05,1.77-5.05.78-8.62-4.28-10.75-9.63-6.23-18.08,5.87-10.99,7.37-23.05,9.85-34.95,1.9-9.11,4.65-18.05,6.99-27.07.57-2.21,1.81-3.33,4.17-3.71,12.41-2.02,24.13-5.88,34.44-13.36,1.95-1.42,3.61-.41,5.15.79,5,3.91,9.97,7.87,15.16,12.01M242.65,311.5c5.41-.66,7.57-7.26,5.87-11.31-2.1-5-7.19-6.85-12.45-4.39-4.43,2.07-5.76,6.37-3.22,11.26,1.89,3.63,5.21,4.84,9.8,4.44Z"/>
  <path class="cls-2" d="M212.05,164.02c4.08,11.19,1.77,19.85-7.27,27.94-6.58,5.89-17.02,7.12-25.46,2.99-10.27-5.02-15.38-18-11.58-29.43,3.13-9.4,15.59-16.33,25.96-14.56,8.13,1.39,14.2,5.59,18.35,13.06Z"/>
  <path class="cls-2" d="M293.16,176.89c-2.11,5.84-5.64,10.5-9.01,15.22-3.13,4.4-7.75,5.73-12.9,5.18-10.58-1.14-18.77-9.95-20.33-21.67-1.25-9.39,4.64-18.95,14.08-22.84,10.47-4.32,21.72-1.4,28.16,6.89,4.48,5.77,3.31,11.27,0,17.22Z"/>
  <path class="cls-1" d="M272.65,262.39c-2.95-2.17-5.69-4.14-8.37-6.2-5.43-4.18-6.62-8.24-4.35-14.55,2.01-5.6,7.24-9.15,13.16-8.8,3.14.19,6.11,1.03,8.77,2.8,10.43,6.92,19.45,15.47,27.76,24.74,5.47,6.1,4.98,13.25-.53,18.44-3.85,3.63-13.76,4.96-18.98-.27-5.53-5.54-11.46-10.68-17.46-16.15Z"/>
</svg>